/* XPM */
static char *cu[] = {
/* columns rows colors chars-per-pixel */
"75 75 16 1",
"  0",
". 112",
"X 119",
"o 189",
"O 55",
"+ 108",
"@ 124",
"# 26",
"$ 29",
"% 40",
"& 47",
"* 44",
"= 32",
"- 13",
"; 11",
": 24",
/* pixels */
"                                                                           ",
"                                                                           ",
"                                                                           ",
"                                                                           ",
"                                                                           ",
"                                                                           ",
"                                                                           ",
"             @##                                                           ",
"             #$$##                                                         ",
"             #$$:$$#                                                       ",
"             #$$:::$$##                                                    ",
"             #$$:::::$###                                                  ",
"             #$$:::::::$##                                                 ",
"             #$$::::::::::$##                                              ",
"             #$$:::::::::::$$##                                            ",
"             #$$:::$$$$$:::::$$#                                           ",
"             #$$::$$$$$$$$:::::$#                                          ",
"             #$$::$$$####$$$::::$#                                         ",
"             ##$:::$$######$$$:::##                                        ",
"             ##$:::$$#######$$$$$$##                                       ",
"             ##$:::$$#########$$$$$###                                     ",
"             ##$:::$$$########$$$$$$$##                                    ",
"             @#$$::$$$########$$$$$$$$###                                  ",
"              ##$$$$$$$########$$$$$$$$$##                                 ",
"               ##$$$$$$$########$$$$$$$$$$###                              ",
"                 ##$$$$$#########$$$$$$$$$$$###                            ",
"                 ##$$$$$$#########$$$$$$$$$$$$###                          ",
"                  #$$$$$$$#########$$$$$$$$$$$$$#######                    ",
"                  #$$$$$$$##########$$$$$$$$$$$$$$$$$$$$##                 ",
"                  #$$$$$$$$###$$$####$$$$$$$$$$$$$$::::::$$##              ",
"                  #$$$$$$$$###########$$$$$$$$$###$$::::::$$$##            ",
"                  ##$$$$$$$$##########$$$$$$$$$#####$$$::::::$##           ",
"                  ##$$$$$$$$$#########$$$$$$$$$### ###$$$::::::$$#         ",
"                  ##$$$$$$$$$#########$$$$$$$$$##    ###$$:::::::$$#       ",
"                   #$$$$$$$$$$$########$$$$$$$###       ###$$$:::::$###    ",
"                   #$$$$$$$$$$$$#########$$$$$$###        ###$$$:::::$#    ",
"                   #$$$$$$$$$$$$$##########$$$$$##         @###$$$$:::$    ",
"                   #$$$$$$$$$$$$$$####    ##$$$$$#            @########    ",
"                   #$$$$$$$$$$$$$$##       #$$:$#                          ",
"                  ##$$$##$$$$$$$$$##        #$$$#                          ",
"                 ##$$$$#######$$$$$#        ##$##                          ",
"                ##$$$$##########$$$$#        ##                            ",
"               ##$$:$$##    ###$$$$$##                                     ",
"               #$$:::$##     ##$$$$$$##                                    ",
"              ##$$:::$$#      ###$$$$$##                                   ",
"              #$$$:::$$#         #######                                   ",
"              #$$$:::$$#                                                   ",
"              #$$$:::$$#                                                   ",
"              #$$$:::$$#                                                   ",
"              #$$$:::$$#                                                   ",
"              ##$$:::$$#                                                   ",
"              ##$$::$$$#                                                   ",
"              ##$$::$$$#                                                   ",
"              ##$$$$$$$#                                                   ",
"               #$$$$:$##                                                   ",
"               #$$$$$$#                                                    ",
"               #$$$:$#                                                     ",
"               #$$:$##                                                     ",
"               #$$$$#                                                      ",
"               #$$$#                                                       ",
"               ##$##                                                       ",
"               ####                                                        ",
"               ###                                                         ",
"                O                                                          ",
"                                                                           ",
"                                                                           ",
"                                                                           ",
"                                                                           ",
"                                                                           ",
"                                                                           ",
"                                                                           ",
"                                                                           ",
"                                                                           ",
"                                                                           ",
"                                                                           "
};
