/* XPM */
static char *n4[] = {
/* columns rows colors chars-per-pixel */
"15 30 16 1",
"  0",
". 112",
"X 119",
"o 189",
"O 55",
"+ 108",
"@ 124",
"# 26",
"$ 29",
"% 40",
"& 47",
"* 44",
"= 32",
"- 13",
"; 11",
": 24",
/* pixels */
"               ",
"               ",
"               ",
"               ",
"               ",
"               ",
"               ",
"               ",
"       o***o   ",
"      X****o   ",
"      *****o   ",
"     o**o**o   ",
"    X**oX**o   ",
"    **o X**o   ",
"   o**. X**o   ",
"  X**o  X**o   ",
"  **o   X**o   ",
" X***********o ",
" X***********o ",
" X***********o ",
"        X**o   ",
"        X**o   ",
"        X**o   ",
"               ",
"               ",
"               ",
"               ",
"               ",
"               ",
"               "
};
