/* XPM */
static char *nave_xpm[] = {
/* columns rows colors chars-per-pixel */
"102 20 16 1",
"  0",
". 112",
"X 119",
"o 189",
"O 55",
"+ 108",
"@ 124",
"# 26",
"$ 29",
"% 40",
"& 47",
"* 44",
"= 32",
"- 13",
"; 11",
": 24",
/* pixels */
"    .%%%%%%%%.$$$$$$$$$$$$$$$$$$$$$$$$$$$$$$$$$$$$$$$$$$$$$$$$$$$$$$$$$$$$$$$$$$$$$$$$$$.%%%%%%%%%.   ",
"   ..%%%%%%%%.$$$$$$$$$$$$$$$$$$$$$$$$$$$$$$$$$$$$$$$$$$$$$$$$$$$$$$$$$$$$$$$$$$$$$$$$$$.%%%%%%%%%%.  ",
"  .%%%%%%%%%%.$$$$$$$$$$$$$$$$$$$$$$$$$$$$$$$$$$$$$$$$$$$$$$$$$$$$$$$$$$$$$$$$$$$$$$$$$$.%%%%%%%%%%%. ",
" %%%%%%%%%%%%.$$$########$##########$##############$#############$$$########$$########$$.%%%%%%%%%%%%.",
" %%%%%%%%%%%%.$$$::####:####:####:#####:##############:########:#####:####:#########::#$.%%%%%%%%%%%%.",
" %%%%%%%%%%%%.$$$########$##########$##############$##############$#########$#########$$.%%%%%%%%%%%%.",
" %%%%%%%%%%%%.$$$########$##########$##############$#############$$$########$$########$$.%%%%%%%%%%%%.",
" %%%%%%%%%%%%.$$$########$$########$$$############$$$###########$$$$########$$$#######$$.%%%%%%%%%%%%.",
" %%%%%%%%%%%%.$$$#$$$$$$$$$$$$$$$$$$$$$$$$$$$$$$$$$$$$$$$$$$$$$$$$$$$$$$$$$$$$$$$$$$#$$$.%%%%%%%%%%%%.",
" %%%%%%%%%%%%.$$$$$$$$$$$$$$$$$$$$$$$$$$$$$$$$$$$$$$$$$$$$$$$$$$$$$$$$$$$$$$$$$$$$$$$$$$.%%%%%%%%%%%%.",
" %%%%%%%%%%%%.$$$$$$$$$$$X$$$$$$$$$..$$$$XXX$$$$$$..$$$$$$$$XX$$$...$$$$$$$$XX$$$$$$$$$$.%%%%%%%%%%%%.",
" %%%%%%%%%%%%.$$$$$$$$$$$X$$$$$$$$$...$$$XXXX$$$$....$$$$$$XX$$$$...$$$$$$$$XX$$$$$$$$$$.%%%%%%%%%%%%.",
" %%%%%%%%%%%%.$$$$$$$$$$$$$$$$$$$$$$$$$$$$$$$$$$$$$$$$$$$$$$$$$$$$$$$$$$$$$$$$$$$$$$$$$$.%%%%%%%%%%%%.",
" %%%%%%%%%%%%.$$$$$$$$$$$$$$$$$$$$$$$$$$$$$$$$$$$$$$$$$$$$$$$$$$$$$$$$$$$$$$$$$$$$$$$$$$.%%%%%%%%%%%%.",
"  .%%%%%%%%%%.$$$$$$$$$$$$$$$$$$$$$$$$$$$$$$$$$$$$$$$$$$$$$$$$$$$$$$$$$$$$$$$$$$$$$$$$$$.%%%%%%%%%%%. ",
"  .%%%%%%%%%%.$$$$$$$$$$$$$$$$$$$$$$$$$$$$$$$$$$$$$$$$$$$$$$$$$$$$$$$$$$$$$$$$$$$$$$$$$$.%%%%%%%%%%%  ",
"     %%%%%%%%.$$$$$$$$$$$$$$$$$$$$$$$$$$$$$$$$$$$$$$$$$$$$$$$$$$$$$$$$$$$$$$$$$$$$$$$$$$.%%%%%%%%..   ",
"     .%%%%%%%.$$$$$$$$$$$$$$$$$$$$$$$$$$$$$$$$$$$$$$$$$$$$$$$$$$$$$$$$$$$$$$$$$$$$$$$$$$.%%%%%%%.     ",
"                                                                                                      ",
"                                                                                                      "
};
