/* XPM */
static char *obs3[] = {
/* columns rows colors chars-per-pixel */
"32 20 2 1",
"+ 0",
"O 12",
/* pixels */
"++++OOOOOOOOOOOOOOOOOOOOOOOO++++",
"++OOOOOOOOOOOOOOOOOOOOOOOOOOOO++",
"+OOOOOOOOOOOOOOOOOOOOOOOOOOOOOO+",
"OOOOOOOO+++OOOOOOOOOO+++OOOOOOOO",
"OOOOOOOOOO+++OOOOOO+++OOOOOOOOOO",
"OOOOOOOOOOOO+++OO+++OOOOOOOOOOOO",
"OOOOOOOOOOOOOO++++OOOOOOOOOOOOOO",
"OOOOOOOOOOOO+++OO+++OOOOOOOOOOOO",
"OOOOOOOOOO+++OOOOOO+++OOOOOOOOOO",
"OOOOOOOO+++OOOOOOOOOO+++OOOOOOOO",
"OOOOOOOOOOOOOOOOOOOOOOOOOOOOOOOO",
"OOOOOOOOOOOOOOOOOOOOOOOOOOOOOOOO",
"OOOOOO++++++++++++++++++++OOOOOO",
"OOOOOO++OOOOOOOOOOOOOOOO++OOOOOO",
"OOOOOOO++OOOOOOOOOOOOOO++OOOOOOO",
"OOOOOOOO++OOOOOOOOOOOO++OOOOOOOO",
"OOOOOOOOO++++++++++++++OOOOOOOOO",
"+OOOOOOOOOOOOOOOOOOOOOOOOOOOOOO+",
"++OOOOOOOOOOOOOOOOOOOOOOOOOOOO++",
"++++OOOOOOOOOOOOOOOOOOOOOOOO++++",
};
